<svg xmlns="http://www.w3.org/2000/svg" width="100" height="100" viewBox="0 0 100 100" fill="none">
  <path fill-rule="evenodd" clip-rule="evenodd" d="M59.7319 83.9141C59.1095 83.9716 58.4762 84 57.8354 84C47.7906 84 39.6348 76.8946 39.6348 64.8632C39.6348 52.8318 47.7906 43.0631 57.8354 43.0631C58.7841 43.0631 59.7152 43.1507 60.623 43.3184C54.0408 47.36 49.4777 55.445 49.4777 64.8632C49.4777 73.9502 53.6086 80.5316 59.7319 83.9141Z" fill="#8E969F"/>
  <path fill-rule="evenodd" clip-rule="evenodd" d="M70.1801 43.0631C80.2258 43.0631 88.3808 52.8318 88.3808 64.8632C88.3808 76.8946 80.2258 84 70.1801 84C60.1353 84 51.9795 76.8946 51.9795 64.8632C51.9795 52.8318 60.1353 43.0631 70.1801 43.0631Z" fill="#FF3F00"/>
  <path fill-rule="evenodd" clip-rule="evenodd" d="M45.0052 82.3606C42.3495 83.4419 39.4843 84.0001 36.4965 84.0001C22.7671 84.0001 11.6201 72.1973 11.6201 52.2111C11.6201 32.2257 22.7671 16 36.4965 16C47.4641 16 56.783 26.3527 60.0887 40.7045C59.3478 40.6094 58.5952 40.5601 57.8343 40.5601C46.5413 40.5601 37.1306 51.3375 37.1306 64.8633C37.1306 72.7154 40.2152 78.6969 45.0052 82.3606ZM26.1938 72.627V67.7693C26.1938 67.0785 25.6331 66.5178 24.9423 66.5178C24.2514 66.5178 23.6908 67.0785 23.6908 67.7693V72.627C23.6908 73.3178 24.2514 73.8785 24.9423 73.8785C25.6331 73.8785 26.1938 73.3178 26.1938 72.627ZM31.3827 57.3432V52.4848C31.3827 51.7939 30.822 51.2332 30.1312 51.2332C29.4403 51.2332 28.8796 51.7939 28.8796 52.4848V57.3432C28.8796 58.0341 29.4403 58.5947 30.1312 58.5947C30.822 58.5947 31.3827 58.0341 31.3827 57.3432ZM24.6845 37.6916V32.834C24.6845 32.1431 24.1238 31.5824 23.4329 31.5824C22.7421 31.5824 22.1814 32.1431 22.1814 32.834V37.6916C22.1814 38.3825 22.7421 38.9431 23.4329 38.9431C24.1238 38.9431 24.6845 38.3825 24.6845 37.6916ZM47.1387 34.3901V29.5316C47.1387 28.8408 46.578 28.2801 45.8872 28.2801C45.1963 28.2801 44.6356 28.8408 44.6356 29.5316V34.3901C44.6356 35.0801 45.1963 35.6416 45.8872 35.6416C46.578 35.6416 47.1387 35.0801 47.1387 34.3901Z" fill="#8E969F"/>
</svg>