<svg xmlns="http://www.w3.org/2000/svg" width="100" height="100" viewBox="0 0 100 100" fill="none">
  <path fill-rule="evenodd" clip-rule="evenodd" d="M12.4103 79.5392C13.7483 84.4172 18.2138 88.0011 23.5163 88.0011H76.4863C82.8463 88.0011 88.0017 82.8457 88.0017 76.4857V23.5157C88.0017 18.2132 84.4178 13.7477 79.5398 12.4097L12.4103 79.5392ZM77.6352 17.7569C76.9993 17.7569 76.4838 18.2724 76.4838 18.9084V22.363C76.4838 22.999 76.9993 23.5145 77.6352 23.5145H81.0898C81.7257 23.5145 82.2417 22.999 82.2417 22.363V18.9084C82.2417 18.2724 81.7257 17.7569 81.0898 17.7569H77.6352ZM77.6352 47.6971C76.9993 47.6971 76.4838 48.2126 76.4838 48.8485V52.3031C76.4838 52.939 76.9993 53.4546 77.6352 53.4546H81.0898C81.7257 53.4546 82.2417 52.939 82.2417 52.3031V48.8485C82.2417 48.2126 81.7257 47.6971 81.0898 47.6971H77.6352ZM17.7565 77.6358C17.7565 76.9995 18.272 76.484 18.908 76.484H22.3626C22.9986 76.484 23.5141 76.9995 23.5141 77.6358V81.0901C23.5141 81.7264 22.9986 82.2419 22.3626 82.2419H18.908C18.272 82.2419 17.7565 81.7264 17.7565 81.0901V77.6358ZM77.6352 76.484C76.9993 76.484 76.4838 76.9995 76.4838 77.6358V81.0901C76.4838 81.7264 76.9993 82.2419 77.6352 82.2419H81.0898C81.7257 82.2419 82.2417 81.7264 82.2417 81.0901V77.6358C82.2417 76.9995 81.7257 76.484 81.0898 76.484H77.6352Z" fill="#8E969F"/>
  <path fill-rule="evenodd" clip-rule="evenodd" d="M66.7317 11.9994H51.9403L12.0002 51.9394V66.7308L66.7317 11.9994ZM17.7557 48.8474C17.7557 48.2116 18.2712 47.696 18.9072 47.696H22.3618C22.9977 47.696 23.5133 48.2116 23.5133 48.8474V52.3021C23.5133 52.938 22.9977 53.4535 22.3618 53.4535H18.9072C18.2712 53.4535 17.7557 52.938 17.7557 52.3021V48.8474Z" fill="#FF3F00"/>
  <path fill-rule="evenodd" clip-rule="evenodd" d="M23.5155 11.9994H42.2911L12.0002 42.2903V23.5146C12.0002 17.1549 17.1558 11.9994 23.5155 11.9994ZM17.7589 18.9071C17.7589 18.2711 18.2745 17.7555 18.9105 17.7555H22.365C23.001 17.7555 23.5165 18.2711 23.5165 18.907V22.3617C23.5165 22.9976 23.001 23.5131 22.365 23.5131H18.9105C18.2745 23.5131 17.7589 22.9976 17.7589 22.3617V18.9071Z" fill="#FF3F00"/>
</svg>