<svg xmlns="http://www.w3.org/2000/svg" width="100" height="100" viewBox="0 0 100 100" fill="none">
  <path d="M24.7976 32.7012C28.4549 30.1307 33.3393 27.8617 36.0137 30.1694C36.4882 30.7252 37.1399 31.1004 37.8588 31.2317C38.5778 31.3629 39.32 31.2423 39.9603 30.89C40.2672 30.6782 40.5293 30.408 40.7316 30.0948C40.934 29.7816 41.0726 29.4316 41.1395 29.0648C41.2064 28.698 41.2004 28.3216 41.1217 27.9571C41.043 27.5926 40.8932 27.2472 40.6809 26.9407C39.7487 25.7174 39.2269 24.2309 39.1898 22.6934L39.187 21.8537C39.3586 19.5369 38.938 17.2146 37.9648 15.1052C37.2205 13.7072 36.1649 12.499 34.8795 11.574C33.594 10.6489 32.1131 10.0318 30.5511 9.77011C30.0525 9.69107 29.5418 9.74645 29.0718 9.93054C28.6017 10.1146 28.1892 10.4208 27.8769 10.8174C27.5646 11.214 27.3637 11.6868 27.295 12.1869C27.2262 12.687 27.2922 13.1965 27.4859 13.6626C27.6065 14.1569 27.6274 14.6703 27.5475 15.1728C27.4676 15.6753 27.2883 16.1568 27.0203 16.5893C26.5076 17.6189 25.9671 18.5529 25.4489 19.4536C23.3666 22.5192 22.1601 26.0948 21.9596 29.7952C21.9236 31.3626 22.7567 33.6476 24.7976 32.7012Z" fill="#FF3F00"/>
  <path d="M10.4222 45.6889C10.5641 39.871 10.7344 33.2869 14.0265 28.2921C15.6793 25.8711 17.9537 23.9399 20.6106 22.7013C19.6774 24.9327 19.1766 27.3211 19.1348 29.7395C19.1078 30.482 19.2322 31.2222 19.5006 31.915C19.7689 32.6079 20.1756 33.2388 20.6957 33.7694C21.1992 34.3604 21.8328 34.8269 22.5467 35.1322C23.2607 35.4374 24.0356 35.5732 24.8108 35.5289C27.8995 35.3567 30.9739 30.1084 33.6937 31.7828C35.2757 32.7567 36.4749 34.2235 38.3479 34.2235C39.6794 34.2327 40.9711 33.7705 41.9944 32.9186C43.0177 32.0667 43.7065 30.8802 43.9388 29.5692C43.532 27.2138 42.8951 24.9039 42.0373 22.6729C42.0327 20.9843 41.9285 19.2975 41.7251 17.6213C46.2633 17.4468 50.7947 18.1106 55.092 19.5795C61.364 22.0201 63.4641 26.0501 65.7344 31.4706C67.5692 36.2053 70.0939 40.6427 73.2267 44.6388C75.5539 47.4768 81.5136 45.6321 84.0962 44.6672C84.6972 44.3562 85.3684 44.2058 86.0447 44.2307C86.7209 44.2555 87.3793 44.4548 87.9558 44.8091C88.5707 45.1941 89.0092 45.8059 89.1762 46.5119C89.8282 51.726 90.0938 56.9811 89.9708 62.2343C89.9882 62.9394 89.7458 63.6262 89.2897 64.1641C89.0836 64.4471 88.8151 64.6788 88.5051 64.8412C88.195 65.0036 87.8517 65.0924 87.5017 65.1007C87.3882 65.1291 67.6314 64.0782 67.494 64.0506C66.7779 63.8578 65.6097 63.2551 65.549 63.5157C65.3694 64.2206 65.4731 64.9679 65.8378 65.5973C66.2025 66.2267 66.7992 66.6882 67.5001 66.883C67.5714 66.9038 70.9283 67.216 75.1211 67.5009C73.2408 69.3005 71.1001 70.8067 68.7711 71.9686C64.7458 73.6042 60.3636 74.1617 56.0569 73.5862C52.7608 73.0362 49.3763 73.4297 46.2943 74.7214C43.5174 76.7192 41.2755 79.3705 39.7669 82.4407C45.7061 84.3252 52.0494 84.5382 58.1016 83.0564C64.1538 81.5747 69.6813 78.4553 74.0781 74.0403C74.6133 73.5095 75.3369 73.2123 76.0907 73.2139C76.8444 73.2154 77.5668 73.5155 78.0998 74.0485C78.6328 74.5815 78.9329 75.3039 78.9345 76.0577C78.936 76.8114 78.6388 77.5351 78.108 78.0702C74.4243 81.7677 70.0452 84.6994 65.2231 86.6964C60.401 88.6935 55.2313 89.7163 50.012 89.7059C44.9195 89.6609 39.8787 88.6796 35.141 86.8112C27.8003 83.8443 21.5126 78.7533 17.0835 72.1904C12.6543 65.6276 10.2854 57.8918 10.2803 49.9742V49.804C10.3655 48.4985 10.3939 47.1079 10.4222 45.6889ZM43.6765 43.902C46.0681 43.8189 48.3958 43.1086 50.4262 41.8423C50.8346 42.7199 51.5304 43.4317 52.3986 43.8599C53.2667 44.2882 54.255 44.4071 55.1999 44.197C56.1448 43.9869 56.9896 43.4604 57.5945 42.7047C58.1993 41.9489 58.528 41.0093 58.526 40.0413C58.526 39.2968 58.053 37.9719 57.0528 37.9295C55.6921 37.7911 54.3175 37.9201 53.0063 38.3092C49.1492 39.9401 45.0296 40.862 40.8453 41.0305L40.8385 41.064C40.8384 41.4367 40.9117 41.8058 41.0543 42.1501C41.1969 42.4945 41.406 42.8074 41.6695 43.0709C41.9331 43.3345 42.246 43.5435 42.5903 43.6861C42.9347 43.8287 43.3038 43.9021 43.6765 43.902Z" fill="#8E969F"/>
</svg>