<svg xmlns="http://www.w3.org/2000/svg" width="100" height="100" viewBox="0 0 100 100" fill="none">
  <path d="M20.5859 14.8629C20.1188 14.9044 19.6999 15.167 19.459 15.5693C19.044 16.2628 19.2693 17.1613 19.9624 17.577C19.9624 17.577 25.8775 21.0033 25.259 28.2159C22.2535 28.7185 20.4517 30.3356 19.1187 32.5143C17.5055 35.1511 16.7708 38.6387 16.3015 41.4545C15.526 46.1076 13.6203 49.8922 11.9972 53.7695C10.3742 57.6467 9 61.6087 9 66.8394C9 71.9024 10.9799 75.6173 14.2366 78.2077C17.4934 80.7978 22.1097 82.2144 27.3037 82.2144C30.5475 82.2144 33.5669 81.6615 36.1697 80.6157C35.6475 79.2933 35.3574 77.8567 35.3574 76.3572C35.3574 70.45 39.8166 65.5133 45.5275 64.7488C45.2192 60.5217 44.0096 57.1121 42.6103 53.7696C40.9873 49.8923 39.0816 46.1079 38.3061 41.4547C37.8312 38.6055 37.0968 35.1189 35.4861 32.4916C33.9943 30.0581 31.9171 28.3293 28.2018 28.0844C28.6899 19.5216 21.4665 15.066 21.4665 15.066C21.2016 14.9072 20.8935 14.836 20.5859 14.8629ZM68.4929 20.8202C68.4929 20.8202 61.6135 23.5174 59.2866 30.3838C55.8748 27.812 52.0818 26.6191 48.3445 26.5743C46.772 26.5554 45.2148 26.7187 43.7113 27.0319C43.6835 27.0368 43.6558 27.0426 43.6284 27.049C41.3388 27.666 39.3124 28.8255 37.5796 30.3779C39.6211 33.5352 40.6143 37.5286 41.1946 40.9739C41.8834 45.1066 43.6385 48.6434 45.3101 52.6367C46.7713 56.1273 48.1453 59.9744 48.4675 64.7285C49.1639 64.8125 49.8393 64.9637 50.4924 65.1689C52.327 63.3268 54.7687 62.094 57.4849 61.7914C57.4739 61.5545 57.4426 61.2818 57.3648 60.9706C57.0962 59.8962 56.3614 58.4783 53.7383 57.1668C53.0149 56.8052 52.7216 55.9254 53.0834 55.202C53.3173 54.7345 53.7828 54.4271 54.3046 54.3955C54.5615 54.3798 54.818 54.4321 55.0482 54.5471C58.2824 56.1641 59.744 58.407 60.2076 60.2612C60.3511 60.835 60.3989 61.3692 60.4021 61.8398C62.9917 62.2006 65.3171 63.4008 67.0801 65.1717C68.1637 64.8325 69.3107 64.6426 70.5007 64.6426C75.1029 64.6426 79.1173 67.3497 81.0282 71.2462C85.0255 67.6852 88.2224 62.5245 89.8626 56.372C91.6303 49.7433 91.2799 43.1889 89.2106 37.8766C87.1412 32.5645 83.2805 28.4434 78.1053 27.0489C78.0778 27.0423 78.0501 27.0366 78.0223 27.0318C72.9348 25.9722 67.2812 26.7598 62.4218 30.415C64.5642 25.594 69.5803 23.5368 69.5803 23.5368C70.3301 23.2362 70.6948 22.3852 70.3954 21.635C69.9815 20.734 69.1347 20.5956 68.4929 20.8202ZM58.7861 64.6434C53.9165 64.6434 50.0003 68.5594 50.0003 73.4291C50.0003 78.2987 53.9165 82.2148 58.7861 82.2148C63.6558 82.2148 67.572 78.2987 67.572 73.4291C67.572 68.5594 63.6558 64.6434 58.7861 64.6434ZM47.0717 67.5719C42.2368 67.5719 38.2858 71.5227 38.2858 76.3576C38.2858 81.1926 42.2368 85.1434 47.0717 85.1434C49.1033 85.1434 50.9767 84.4435 52.4685 83.2758C49.2293 81.188 47.0717 77.5554 47.0717 73.4291C47.0717 71.3504 47.6256 69.3991 48.5818 67.7034C48.0906 67.6171 47.5868 67.5719 47.0717 67.5719ZM70.5003 67.5719C69.9855 67.5719 69.4813 67.6176 68.9902 67.7035C69.9464 69.399 70.5003 71.3503 70.5003 73.4291C70.5003 77.5555 68.3427 81.1881 65.1035 83.2759C66.5953 84.4436 68.4687 85.1434 70.5003 85.1434C75.3352 85.1434 79.2861 81.1926 79.2861 76.3577C79.2861 71.5228 75.3352 67.5719 70.5003 67.5719Z" fill="#8E969F"/>
  <path d="M58.7864 64.6433C53.9168 64.6433 50.0006 68.5594 50.0006 73.429C50.0006 78.2986 53.9168 82.2147 58.7864 82.2147C63.6561 82.2147 67.5723 78.2986 67.5723 73.429C67.5723 68.5594 63.6561 64.6433 58.7864 64.6433ZM47.072 67.5719C42.2371 67.5719 38.2861 71.5227 38.2861 76.3576C38.2861 81.1925 42.2371 85.1433 47.072 85.1433C49.1035 85.1433 50.977 84.4435 52.4688 83.2757C49.2296 81.188 47.072 77.5554 47.072 73.429C47.072 71.3503 47.6258 69.399 48.5821 67.7034C48.0909 67.617 47.5871 67.5719 47.072 67.5719ZM70.5006 67.5719C69.9858 67.5719 69.4816 67.6175 68.9904 67.7034C69.9467 69.3989 70.5006 71.3502 70.5006 73.4291C70.5006 77.5554 68.3429 81.188 65.1038 83.2758C66.5956 84.4435 68.469 85.1433 70.5006 85.1433C75.3355 85.1433 79.2864 81.1926 79.2864 76.3576C79.2864 71.5227 75.3355 67.5719 70.5006 67.5719Z" fill="#FF3F00"/>
</svg>