<svg xmlns="http://www.w3.org/2000/svg" width="100" height="100" viewBox="0 0 100 100" fill="none">
  <path d="M56.8818 18.3999C57.9384 18.4492 58.8547 19.4555 58.8052 20.512C58.7557 21.5686 57.7492 22.4848 56.6927 22.435H53.3196L55.6839 36.558H63.7542V27.4159C63.7562 26.5634 64.3587 25.746 65.1727 25.4929C66.4833 25.0603 67.7912 24.667 68.9872 24.4211C69.9453 24.4615 70.8107 25.2761 70.9091 26.23C71.0076 27.1838 70.3267 28.1579 69.397 28.3931L67.7893 28.8975V36.558H77.8771V35.5492C77.8525 34.4047 78.9774 33.3747 80.1153 33.5001C81.1067 33.609 81.9336 34.5521 81.9122 35.5492V36.558H85.9473V54.4638C83.8337 53.3388 81.4389 52.6984 78.8859 52.6984C70.5527 52.6984 63.7542 59.497 63.7542 67.8301C63.7542 68.8826 63.8631 69.9266 64.0694 70.9195L42.5067 70.8883C43.1886 68.9823 43.5785 66.9397 43.5785 64.8038C43.5785 54.7993 35.425 46.6458 25.4205 46.6458C24.74 46.6458 24.0643 46.6985 23.4029 46.7719V18.4C34.8396 18.4 46.6081 18.4 56.8818 18.3999ZM47.8659 22.435C41.4628 22.4347 34.945 22.435 29.4556 22.435C28.3993 22.4351 27.4382 23.3962 27.4381 24.4526V37.5667C27.4471 38.4785 28.153 39.336 29.0458 39.5212C38.4488 41.4018 45.8002 47.6982 48.6855 60.2012C48.8831 61.0827 49.7367 61.771 50.64 61.7775H52.6576C53.805 61.7674 54.8048 60.6122 54.6436 59.4761L49.5997 24.1689C49.4838 23.2981 48.7366 22.551 47.8659 22.435ZM25.4205 48.6633C34.3346 48.6633 41.561 55.8896 41.561 64.8038C41.561 73.7179 34.3346 80.9443 25.4205 80.9443C16.5063 80.9443 9.28001 73.7179 9.28001 64.8038C9.28001 55.8896 16.5063 48.6633 25.4205 48.6633ZM78.8859 54.716C86.1286 54.716 92 60.5874 92 67.8301C92 75.0729 86.1286 80.9443 78.8859 80.9443C71.6431 80.9443 65.7717 75.0729 65.7717 67.8301C65.7717 60.5874 71.6431 54.716 78.8859 54.716ZM25.4205 57.7423C21.5445 57.7423 18.359 60.9278 18.359 64.8038C18.359 68.6798 21.5445 71.8653 25.4205 71.8653C29.2965 71.8653 32.482 68.6798 32.482 64.8038C32.482 60.9278 29.2965 57.7423 25.4205 57.7423ZM78.8859 62.7862C76.1241 62.7862 73.842 65.0683 73.842 67.8301C73.842 70.5919 76.1241 72.874 78.8859 72.874C81.6476 72.874 83.9298 70.5919 83.9298 67.8301C83.9298 64.8038 81.9122 62.7862 78.8859 62.7862Z" fill="#8E969F"/>
  <path d="M25.422 48.6631C34.3362 48.6631 41.5625 55.8894 41.5625 64.8036C41.5625 73.7177 34.3362 80.9441 25.422 80.9441C16.5079 80.9441 9.28153 73.7177 9.28153 64.8036C9.28153 55.8894 16.5079 48.6631 25.422 48.6631ZM25.422 57.7421C21.546 57.7421 18.3605 60.9275 18.3605 64.8036C18.3605 68.6796 21.546 71.865 25.422 71.865C29.298 71.865 32.4835 68.6796 32.4835 64.8036C32.4835 60.9275 29.298 57.7421 25.422 57.7421Z" fill="#FF3F00"/>
</svg>
