<svg xmlns="http://www.w3.org/2000/svg" width="100" height="100" viewBox="0 0 100 100" fill="none">
  <path d="M41.4133 19.6805C39.563 18.914 37.5362 19.3171 36.1201 20.7341L13.4363 43.4171C12.0202 44.8331 11.6162 46.8608 12.3827 48.7111C13.1491 50.5614 14.8688 51.7102 16.8705 51.7102H39.5543C42.2333 51.7102 44.4115 49.5311 44.4115 46.853V24.1691C44.4124 22.1657 43.2636 20.446 41.4133 19.6805Z" fill="#8E969F"/>
  <path d="M64.8823 13.4362C63.4671 12.0193 61.4395 11.6162 59.5892 12.3826C57.7389 13.1482 56.5901 14.8679 56.5901 16.8704V39.5543C56.5901 42.2333 58.7691 44.4115 61.4473 44.4115H84.1311C86.1337 44.4115 87.8542 43.2627 88.6189 41.4124C89.3854 39.5621 88.9814 37.5344 87.5653 36.1192L64.8823 13.4362Z" fill="#FF3F00"/>
  <path d="M39.5543 56.5898H16.8705C14.8679 56.5898 13.1473 57.7386 12.3827 59.5889C11.6162 61.4392 12.0202 63.4669 13.4363 64.8821L36.1201 87.5659C37.0613 88.508 38.2732 89.001 39.524 89.001C40.1547 89.001 40.7939 88.8756 41.4142 88.6196C43.2645 87.854 44.4132 86.1343 44.4132 84.1318V61.447C44.4115 58.7689 42.2325 56.5898 39.5543 56.5898Z" fill="#8E969F"/>
  <path d="M76.8339 56.5898H54.1509C51.4719 56.5898 49.2937 58.7689 49.2937 61.447V84.1309C49.2937 86.1326 50.4425 87.8531 52.2928 88.6187C52.913 88.8756 53.5523 89.0002 54.1829 89.0002C55.4329 89.0002 56.6465 88.5071 57.5877 87.5651L80.2707 64.8812C81.6867 63.466 82.0907 61.4384 81.3243 59.5881C80.557 57.7386 78.8373 56.5898 76.8339 56.5898Z" fill="#8E969F"/>
</svg>