<svg width="100" height="100" viewBox="0 0 100 100" fill="none" xmlns="http://www.w3.org/2000/svg">
<g id="noun-arch-3212939 1">
<path id="Vector" d="M85.0447 35.9575C72.5469 4.01417 27.4536 4.01417 14.9558 35.9575C12.9982 40.9849 11.9959 46.3335 12.0003 51.7286V88H25.7225V52.1086C25.7225 45.6693 28.2803 39.4937 32.8333 34.9404C37.3862 30.3872 43.5614 27.8292 50.0002 27.8292C56.4391 27.8292 62.6143 30.3872 67.1672 34.9404C71.7202 39.4937 74.278 45.6693 74.278 52.1086V88H88.0002V51.7286C88.0046 46.3335 87.0023 40.9849 85.0447 35.9575Z" fill="#8E969F"/>
<path id="Vector_2" d="M50.0001 37.3336C45.6768 37.3446 41.5346 38.9865 38.4817 41.8994C35.4288 44.8124 33.7143 48.7585 33.7144 52.8725V88.0003H66.2858V52.8725C66.2858 48.7585 64.5714 44.8124 61.5185 41.8994C58.4655 38.9865 54.3233 37.3446 50.0001 37.3336Z" fill="#FF3F00"/>
</g>
</svg>
