<svg xmlns="http://www.w3.org/2000/svg" width="100" height="100" viewBox="0 0 100 100" fill="none">
  <path d="M90.769 34.8542L50.6784 19.5816C50.2422 19.4101 49.7574 19.4101 49.3212 19.5816L9.23062 34.8542C8.86876 34.9911 8.55719 35.235 8.33737 35.5534C8.11755 35.8718 7.99992 36.2496 8.00012 36.6365V40.4547C7.99997 40.7054 8.04925 40.9537 8.14514 41.1854C8.24102 41.4171 8.38164 41.6276 8.55894 41.8049C8.73625 41.9822 8.94676 42.1228 9.17845 42.2187C9.41014 42.3146 9.65845 42.3639 9.9092 42.3637H90.0904C90.3411 42.3639 90.5895 42.3146 90.8212 42.2187C91.0528 42.1228 91.2634 41.9822 91.4407 41.8049C91.618 41.6276 91.7586 41.4171 91.8545 41.1854C91.9504 40.9537 91.9996 40.7054 91.9995 40.4547V36.6365C91.9997 36.2496 91.882 35.8718 91.6622 35.5534C91.4424 35.235 91.1308 34.9911 90.769 34.8542Z" fill="#8E969F"/>
  <path d="M69.0899 61.4545H30.9083V80.5452H69.0899V61.4545Z" fill="#FF3F00"/>
  <path d="M11.8185 78.6368C11.8183 78.8875 11.8676 79.1358 11.9635 79.3675C12.0594 79.5992 12.2 79.8097 12.3773 79.987C12.5546 80.1644 12.7651 80.305 12.9968 80.4008C13.2285 80.4967 13.4768 80.546 13.7276 80.5459H27.0911V59.546C27.091 59.2953 27.1402 59.047 27.2361 58.8153C27.332 58.5836 27.4726 58.3731 27.6499 58.1958C27.8272 58.0185 28.0378 57.8779 28.2694 57.782C28.5011 57.6861 28.7494 57.6368 29.0002 57.637H70.9998C71.2506 57.6368 71.4989 57.6861 71.7306 57.782C71.9623 57.8779 72.1728 58.0185 72.3501 58.1958C72.5274 58.3731 72.668 58.5836 72.7639 58.8153C72.8598 59.047 72.9091 59.2953 72.9089 59.546V80.5459H86.2725C86.5232 80.546 86.7715 80.4967 87.0032 80.4008C87.2349 80.305 87.4454 80.1644 87.6227 79.987C87.8 79.8097 87.9406 79.5992 88.0365 79.3675C88.1324 79.1358 88.1817 78.8875 88.1815 78.6368V46.1825H11.8185V78.6368Z" fill="#8E969F"/>
</svg>