<svg viewBox="0 0 1401 213" fill="none" xmlns="http://www.w3.org/2000/svg" preserveAspectRatio="xMidYMax meet">
  <g opacity="0.15">
    <path d="M0.855065 194L44.61 55.2177H78.631L122.386 194H98.4846L58.7774 69.4814H63.9817L24.7565 194H0.855065ZM25.2383 163.93V142.246H98.0991V163.93H25.2383ZM135.956 194V55.2177H159.182V113.622H224.911V55.2177H248.042V194H224.911V135.403H159.182V194H135.956ZM271.207 194V55.2177H360.837V76.9988H294.433V194H271.207ZM358.985 194L402.74 55.2177H436.76L480.515 194H456.614L416.907 69.4814H422.111L382.886 194H358.985ZM383.368 163.93V142.246H456.229V163.93H383.368ZM494.085 194V55.2177H551.429C552.778 55.2177 554.513 55.2819 556.633 55.4104C558.754 55.4747 560.713 55.6674 562.512 55.9887C570.544 57.2095 577.162 59.8759 582.366 63.9879C587.635 68.1 591.522 73.3044 594.027 79.601C596.598 85.8333 597.883 92.7724 597.883 100.418C597.883 108 596.598 114.939 594.027 121.236C591.457 127.468 587.538 132.64 582.27 136.752C577.065 140.864 570.479 143.531 562.512 144.752C560.713 145.009 558.722 145.201 556.537 145.33C554.417 145.458 552.714 145.523 551.429 145.523H517.312V194H494.085ZM517.312 123.838H550.465C551.75 123.838 553.196 123.774 554.802 123.645C556.408 123.517 557.886 123.26 559.236 122.874C563.091 121.91 566.11 120.208 568.295 117.766C570.544 115.325 572.118 112.562 573.017 109.478C573.981 106.394 574.463 103.374 574.463 100.418C574.463 97.4628 573.981 94.443 573.017 91.3589C572.118 88.2106 570.544 85.4157 568.295 82.9741C566.11 80.5326 563.091 78.8299 559.236 77.8662C557.886 77.4807 556.408 77.2558 554.802 77.1915C553.196 77.063 551.75 76.9988 550.465 76.9988H517.312V123.838Z" fill="white"/>
    <path d="M836.975 196.892C823.097 196.892 811.21 193.872 801.316 187.832C791.421 181.728 783.807 173.247 778.475 162.389C773.206 151.53 770.572 138.937 770.572 124.609C770.572 110.281 773.206 97.6879 778.475 86.8294C783.807 75.971 791.421 67.522 801.316 61.4824C811.21 55.3785 823.097 52.3266 836.975 52.3266C852.974 52.3266 866.306 56.3423 876.971 64.3737C887.637 72.3408 895.122 83.1029 899.427 96.6599L876.008 103.117C873.309 94.0577 868.715 86.9901 862.226 81.9142C855.736 76.7742 847.32 74.2041 836.975 74.2041C827.659 74.2041 819.884 76.2923 813.652 80.4686C807.484 84.6449 802.826 90.5239 799.677 98.1055C796.593 105.623 795.019 114.457 794.955 124.609C794.955 134.761 796.497 143.627 799.581 151.209C802.729 158.726 807.42 164.573 813.652 168.75C819.884 172.926 827.659 175.014 836.975 175.014C847.32 175.014 855.736 172.444 862.226 167.304C868.715 162.164 873.309 155.096 876.008 146.101L899.427 152.558C895.122 166.115 887.637 176.909 876.971 184.941C866.306 192.908 852.974 196.892 836.975 196.892ZM950.079 194V76.999H905.168V55.2179H1018.22V76.999H973.306V194H950.079ZM1029.77 194V55.2179H1087.12C1088.47 55.2179 1090.2 55.2822 1092.32 55.4107C1094.44 55.4749 1096.4 55.6677 1098.2 55.9889C1106.23 57.2097 1112.85 59.8761 1118.05 63.9882C1123.32 68.1003 1127.21 73.3046 1129.71 79.6012C1132.28 85.8336 1133.57 92.7727 1133.57 100.419C1133.57 108 1132.28 114.939 1129.71 121.236C1127.14 127.468 1123.23 132.64 1117.96 136.753C1112.75 140.865 1106.17 143.531 1098.2 144.752C1096.4 145.009 1094.41 145.202 1092.22 145.33C1090.1 145.459 1088.4 145.523 1087.12 145.523H1053V194H1029.77ZM1053 123.838H1086.15C1087.44 123.838 1088.88 123.774 1090.49 123.645C1092.1 123.517 1093.57 123.26 1094.92 122.874C1098.78 121.911 1101.8 120.208 1103.98 117.766C1106.23 115.325 1107.8 112.562 1108.7 109.478C1109.67 106.394 1110.15 103.374 1110.15 100.419C1110.15 97.463 1109.67 94.4432 1108.7 91.3591C1107.8 88.2108 1106.23 85.4159 1103.98 82.9744C1101.8 80.5328 1098.78 78.8302 1094.92 77.8664C1093.57 77.4809 1092.1 77.256 1090.49 77.1918C1088.88 77.0633 1087.44 76.999 1086.15 76.999H1053V123.838ZM1207.72 196.892C1193.84 196.892 1181.95 193.872 1172.06 187.832C1162.16 181.728 1154.55 173.247 1149.22 162.389C1143.95 151.53 1141.31 138.937 1141.31 124.609C1141.31 110.281 1143.95 97.6879 1149.22 86.8294C1154.55 75.971 1162.16 67.522 1172.06 61.4824C1181.95 55.3785 1193.84 52.3266 1207.72 52.3266C1221.59 52.3266 1233.48 55.3785 1243.38 61.4824C1253.33 67.522 1260.95 75.971 1266.22 86.8294C1271.55 97.6879 1274.22 110.281 1274.22 124.609C1274.22 138.937 1271.55 151.53 1266.22 162.389C1260.95 173.247 1253.33 181.728 1243.38 187.832C1233.48 193.872 1221.59 196.892 1207.72 196.892ZM1207.72 175.014C1217.03 175.078 1224.78 173.022 1230.94 168.846C1237.18 164.67 1241.83 158.791 1244.92 151.209C1248.07 143.627 1249.64 134.761 1249.64 124.609C1249.64 114.457 1248.07 105.655 1244.92 98.2019C1241.83 90.6845 1237.18 84.8377 1230.94 80.6614C1224.78 76.485 1217.03 74.3326 1207.72 74.2041C1198.4 74.1399 1190.66 76.1959 1184.49 80.3722C1178.32 84.5485 1173.66 90.4275 1170.52 98.0091C1167.43 105.591 1165.89 114.457 1165.89 124.609C1165.89 134.761 1167.43 143.595 1170.52 151.113C1173.6 158.566 1178.23 164.38 1184.39 168.557C1190.63 172.733 1198.4 174.886 1207.72 175.014ZM1289.54 194V55.2179H1313.06V153.04L1377.44 55.2179H1400.96V194H1377.44V96.178L1313.06 194H1289.54ZM1345.15 43.46C1339.76 43.46 1334.84 42.1428 1330.41 39.5085C1326.04 36.8742 1322.54 33.3726 1319.9 29.0035C1317.27 24.5702 1315.95 19.6549 1315.95 14.2579H1334.07C1334.07 17.3419 1335.13 19.9762 1337.25 22.1607C1339.44 24.281 1342.07 25.3412 1345.15 25.3412C1348.24 25.3412 1350.84 24.281 1352.96 22.1607C1355.15 19.9762 1356.24 17.3419 1356.24 14.2579H1374.36C1374.36 19.6549 1373.04 24.5702 1370.4 29.0035C1367.77 33.3726 1364.24 36.8742 1359.8 39.5085C1355.37 42.1428 1350.49 43.46 1345.15 43.46Z" fill="white"/>
    <path d="M687.688 38.5508V212.029" stroke="white" stroke-width="24.0942"/>
  </g>
  <g clip-path="url(#clip0_394_4970)">
    <g opacity="0.15">
      <path d="M0.855065 194L44.61 55.2177H78.631L122.386 194H98.4846L58.7774 69.4814H63.9817L24.7565 194H0.855065ZM25.2383 163.93V142.246H98.0991V163.93H25.2383ZM135.956 194V55.2177H159.182V113.622H224.911V55.2177H248.042V194H224.911V135.403H159.182V194H135.956ZM271.207 194V55.2177H360.837V76.9988H294.433V194H271.207ZM358.985 194L402.74 55.2177H436.76L480.515 194H456.614L416.907 69.4814H422.111L382.886 194H358.985ZM383.368 163.93V142.246H456.229V163.93H383.368ZM494.085 194V55.2177H551.429C552.778 55.2177 554.513 55.2819 556.633 55.4104C558.754 55.4747 560.713 55.6674 562.512 55.9887C570.544 57.2095 577.162 59.8759 582.366 63.9879C587.635 68.1 591.522 73.3044 594.027 79.601C596.598 85.8333 597.883 92.7724 597.883 100.418C597.883 108 596.598 114.939 594.027 121.236C591.457 127.468 587.538 132.64 582.27 136.752C577.065 140.864 570.479 143.531 562.512 144.752C560.713 145.009 558.722 145.201 556.537 145.33C554.417 145.458 552.714 145.523 551.429 145.523H517.312V194H494.085ZM517.312 123.838H550.465C551.75 123.838 553.196 123.774 554.802 123.645C556.408 123.517 557.886 123.26 559.236 122.874C563.091 121.91 566.11 120.208 568.295 117.766C570.544 115.325 572.118 112.562 573.017 109.478C573.981 106.394 574.463 103.374 574.463 100.418C574.463 97.4628 573.981 94.443 573.017 91.3589C572.118 88.2106 570.544 85.4157 568.295 82.9741C566.11 80.5326 563.091 78.8299 559.236 77.8662C557.886 77.4807 556.408 77.2558 554.802 77.1915C553.196 77.063 551.75 76.9988 550.465 76.9988H517.312V123.838Z" fill="#C4CDD7"/>
      <path d="M836.975 196.892C823.097 196.892 811.21 193.872 801.316 187.832C791.421 181.728 783.807 173.247 778.475 162.389C773.206 151.53 770.572 138.937 770.572 124.609C770.572 110.281 773.206 97.6879 778.475 86.8294C783.807 75.971 791.421 67.522 801.316 61.4824C811.21 55.3785 823.097 52.3266 836.975 52.3266C852.974 52.3266 866.306 56.3423 876.971 64.3737C887.637 72.3408 895.122 83.1029 899.427 96.6599L876.008 103.117C873.309 94.0577 868.715 86.9901 862.226 81.9142C855.736 76.7742 847.32 74.2041 836.975 74.2041C827.659 74.2041 819.884 76.2923 813.652 80.4686C807.484 84.6449 802.826 90.5239 799.677 98.1055C796.593 105.623 795.019 114.457 794.955 124.609C794.955 134.761 796.497 143.627 799.581 151.209C802.729 158.726 807.42 164.573 813.652 168.75C819.884 172.926 827.659 175.014 836.975 175.014C847.32 175.014 855.736 172.444 862.226 167.304C868.715 162.164 873.309 155.096 876.008 146.101L899.427 152.558C895.122 166.115 887.637 176.909 876.971 184.941C866.306 192.908 852.974 196.892 836.975 196.892ZM950.079 194V76.999H905.168V55.2179H1018.22V76.999H973.306V194H950.079ZM1029.77 194V55.2179H1087.12C1088.47 55.2179 1090.2 55.2822 1092.32 55.4107C1094.44 55.4749 1096.4 55.6677 1098.2 55.9889C1106.23 57.2097 1112.85 59.8761 1118.05 63.9882C1123.32 68.1003 1127.21 73.3046 1129.71 79.6012C1132.28 85.8336 1133.57 92.7727 1133.57 100.419C1133.57 108 1132.28 114.939 1129.71 121.236C1127.14 127.468 1123.23 132.64 1117.96 136.753C1112.75 140.865 1106.17 143.531 1098.2 144.752C1096.4 145.009 1094.41 145.202 1092.22 145.33C1090.1 145.459 1088.4 145.523 1087.12 145.523H1053V194H1029.77ZM1053 123.838H1086.15C1087.44 123.838 1088.88 123.774 1090.49 123.645C1092.1 123.517 1093.57 123.26 1094.92 122.874C1098.78 121.911 1101.8 120.208 1103.98 117.766C1106.23 115.325 1107.8 112.562 1108.7 109.478C1109.67 106.394 1110.15 103.374 1110.15 100.419C1110.15 97.463 1109.67 94.4432 1108.7 91.3591C1107.8 88.2108 1106.23 85.4159 1103.98 82.9744C1101.8 80.5328 1098.78 78.8302 1094.92 77.8664C1093.57 77.4809 1092.1 77.256 1090.49 77.1918C1088.88 77.0633 1087.44 76.999 1086.15 76.999H1053V123.838ZM1207.72 196.892C1193.84 196.892 1181.95 193.872 1172.06 187.832C1162.16 181.728 1154.55 173.247 1149.22 162.389C1143.95 151.53 1141.31 138.937 1141.31 124.609C1141.31 110.281 1143.95 97.6879 1149.22 86.8294C1154.55 75.971 1162.16 67.522 1172.06 61.4824C1181.95 55.3785 1193.84 52.3266 1207.72 52.3266C1221.59 52.3266 1233.48 55.3785 1243.38 61.4824C1253.33 67.522 1260.95 75.971 1266.22 86.8294C1271.55 97.6879 1274.22 110.281 1274.22 124.609C1274.22 138.937 1271.55 151.53 1266.22 162.389C1260.95 173.247 1253.33 181.728 1243.38 187.832C1233.48 193.872 1221.59 196.892 1207.72 196.892ZM1207.72 175.014C1217.03 175.078 1224.78 173.022 1230.94 168.846C1237.18 164.67 1241.83 158.791 1244.92 151.209C1248.07 143.627 1249.64 134.761 1249.64 124.609C1249.64 114.457 1248.07 105.655 1244.92 98.2019C1241.83 90.6845 1237.18 84.8377 1230.94 80.6614C1224.78 76.485 1217.03 74.3326 1207.72 74.2041C1198.4 74.1399 1190.66 76.1959 1184.49 80.3722C1178.32 84.5485 1173.66 90.4275 1170.52 98.0091C1167.43 105.591 1165.89 114.457 1165.89 124.609C1165.89 134.761 1167.43 143.595 1170.52 151.113C1173.6 158.566 1178.23 164.38 1184.39 168.557C1190.63 172.733 1198.4 174.886 1207.72 175.014ZM1289.54 194V55.2179H1313.06V153.04L1377.44 55.2179H1400.96V194H1377.44V96.178L1313.06 194H1289.54ZM1345.15 43.46C1339.76 43.46 1334.84 42.1428 1330.41 39.5085C1326.04 36.8742 1322.54 33.3726 1319.9 29.0035C1317.27 24.5702 1315.95 19.6549 1315.95 14.2579H1334.07C1334.07 17.3419 1335.13 19.9762 1337.25 22.1607C1339.44 24.281 1342.07 25.3412 1345.15 25.3412C1348.24 25.3412 1350.84 24.281 1352.96 22.1607C1355.15 19.9762 1356.24 17.3419 1356.24 14.2579H1374.36C1374.36 19.6549 1373.04 24.5702 1370.4 29.0035C1367.77 33.3726 1364.24 36.8742 1359.8 39.5085C1355.37 42.1428 1350.49 43.46 1345.15 43.46Z" fill="#C4CDD7"/>
      <path d="M687.688 38.5508V212.029" stroke="#C4CDD7" stroke-width="24.0942"/>
    </g>
  </g>
</svg>
