<svg xmlns="http://www.w3.org/2000/svg" width="100" height="100" viewBox="0 0 100 100" fill="none">
  <path d="M26 84.8C20.4667 84.8 15.7493 82.8493 11.848 78.948C7.94667 75.0467 5.99734 70.3307 6 64.8C6 59.2667 7.95067 54.5493 11.852 50.648C15.7533 46.7467 20.4693 44.7973 26 44.8C31.5333 44.8 36.2507 46.7507 40.152 50.652C44.0533 54.5533 46.0027 59.2693 46 64.8C46 70.3333 44.0493 75.0507 40.148 78.952C36.2467 82.8533 31.5307 84.8027 26 84.8ZM26 70.8C24.3333 70.8 22.916 70.216 21.748 69.048C20.58 67.88 19.9973 66.464 20 64.8C20 63.1333 20.584 61.716 21.752 60.548C22.92 59.38 24.336 58.7973 26 58.8C27.6667 58.8 29.084 59.384 30.252 60.552C31.42 61.72 32.0027 63.136 32 64.8C32 66.4667 31.416 67.884 30.248 69.052C29.08 70.22 27.664 70.8027 26 70.8ZM80 84.8C76.1333 84.8 72.8333 83.4333 70.1 80.7C67.3667 77.9667 66 74.6667 66 70.8C66 66.9333 67.3667 63.6333 70.1 60.9C72.8333 58.1667 76.1333 56.8 80 56.8C83.8667 56.8 87.1667 58.1667 89.9 60.9C92.6333 63.6333 94 66.9333 94 70.8C94 74.6667 92.6333 77.9667 89.9 80.7C87.1667 83.4333 83.8667 84.8 80 84.8ZM18 40.8C16.8667 40.8 15.916 40.416 15.148 39.648C14.38 38.88 13.9973 37.9307 14 36.8C14 35.6667 14.384 34.716 15.152 33.948C15.92 33.18 16.8693 32.7973 18 32.8H30C32.2 32.8 34.084 33.584 35.652 35.152C37.22 36.72 38.0027 38.6027 38 40.8H18ZM26 76.8C29.3333 76.8 32.1667 75.6333 34.5 73.3C36.8333 70.9667 38 68.1333 38 64.8C38 61.4667 36.8333 58.6333 34.5 56.3C32.1667 53.9667 29.3333 52.8 26 52.8C22.6667 52.8 19.8333 53.9667 17.5 56.3C15.1667 58.6333 14 61.4667 14 64.8C14 68.1333 15.1667 70.9667 17.5 73.3C19.8333 75.6333 22.6667 76.8 26 76.8ZM80 76.8C81.6667 76.8 83.084 76.216 84.252 75.048C85.42 73.88 86.0027 72.464 86 70.8C86 69.1333 85.416 67.716 84.248 66.548C83.08 65.38 81.664 64.7973 80 64.8C78.3333 64.8 76.916 65.384 75.748 66.552C74.58 67.72 73.9973 69.136 74 70.8C74 72.4667 74.584 73.884 75.752 75.052C76.92 76.22 78.336 76.8027 80 76.8ZM49.6 68.8H62.2C62.8667 64 64.9493 60.1667 68.448 57.3C71.9467 54.4333 75.8973 53 80.3 53C81.9667 53 83.6173 53.2333 85.252 53.7C86.8867 54.1667 88.4693 54.8667 90 55.8V36.8C90 34.6 89.216 32.716 87.648 31.148C86.08 29.58 84.1973 28.7973 82 28.8H56.8L52.6 24.4L58.2 18.8L55.4 16L41.2 30.2L44.2 33L49.8 27.4L54 31.6V40.8C54 43 53.2173 44.884 51.652 46.452C50.0867 48.02 48.2027 48.8027 46 48.8H43.8C45.8 51 47.316 53.4667 48.348 56.2C49.38 58.9333 49.8973 61.8 49.9 64.8C49.9 65.4667 49.8827 66.1333 49.848 66.8C49.8133 67.4667 49.7307 68.1333 49.6 68.8Z" fill="#8E969F"/>
  <path d="M80 84.8001C76.1333 84.8001 72.8333 83.4334 70.1 80.7001C67.3667 77.9667 66 74.6667 66 70.8C66 66.9334 67.3667 63.6334 70.1 60.9C72.8333 58.1667 76.1333 56.8 80 56.8C83.8667 56.8 87.1667 58.1667 89.9 60.9C92.6333 63.6334 94 66.9334 94 70.8C94 74.6667 92.6333 77.9667 89.9 80.7001C87.1667 83.4334 83.8667 84.8001 80 84.8001ZM80 76.8C81.6667 76.8 83.084 76.216 84.252 75.048C85.42 73.8801 86.0027 72.464 86 70.8C86 69.1334 85.416 67.7161 84.248 66.548C83.08 65.38 81.664 64.7974 80 64.8C78.3333 64.8 76.916 65.384 75.748 66.552C74.58 67.72 73.9973 69.136 74 70.8C74 72.4667 74.584 73.884 75.752 75.052C76.92 76.22 78.336 76.8027 80 76.8Z" fill="#FF3F00"/>
</svg>