<svg xmlns="http://www.w3.org/2000/svg" width="100" height="100" viewBox="0 0 100 100" fill="none">
  <path d="M46.8322 17.5437V31.7917C46.8322 34.8477 44.3442 37.3357 41.2882 37.3357H17.5442C14.4882 37.3357 12.0002 34.8477 12.0002 31.7917V17.5437C12.0002 14.4877 14.4882 11.9996 17.5442 11.9996H41.2882C44.3442 11.9996 46.8322 14.4877 46.8322 17.5437Z" fill="#8E969F"/>
  <path d="M41.2919 43.6661H17.5419C14.4825 43.6661 12.0002 46.1484 12.0002 49.2078V82.4578C12.0002 85.5173 14.4825 87.9995 17.5419 87.9995H41.2919C44.3514 87.9995 46.8336 85.5173 46.8336 82.4578V49.2078C46.8336 46.1484 44.3514 43.6661 41.2919 43.6661Z" fill="#8E969F"/>
  <path d="M88 68.2081V82.456C88 85.5121 85.512 88 82.456 88H58.712C55.656 88 53.168 85.5121 53.168 82.456V68.2081C53.168 65.1521 55.656 62.6641 58.712 62.6641H82.456C85.512 62.6641 88 65.1521 88 68.2081Z" fill="#FF3F00"/>
  <path d="M82.4579 11.9996H58.708C55.6485 11.9996 53.1663 14.4818 53.1663 17.5413V50.7913C53.1663 53.8508 55.6485 56.333 58.708 56.333H82.4579C85.5174 56.333 87.9996 53.8508 87.9996 50.7913V17.5413C87.9996 14.4818 85.5174 11.9996 82.4579 11.9996Z" fill="#8E969F"/>
</svg>