<svg width="100" height="100" viewBox="0 0 100 100" fill="none" xmlns="http://www.w3.org/2000/svg">
<g id="noun-cold-2409434 2">
<g id="Group 4242">
<path id="Vector" d="M82.8319 43.5366H76.2467V72.7829C76.2467 73.8481 75.3751 74.7197 74.3098 74.7197H67.0467C65.9814 74.7197 65.1098 73.8481 65.1098 72.7829V43.6334H58.7182C56.394 43.6334 55.0382 40.9218 56.4909 38.985L68.5961 23.3934C69.7582 21.9408 71.9856 21.9408 73.1477 23.3934L85.253 38.985C86.6088 40.825 85.253 43.5366 82.8319 43.5366Z" fill="#8E969F"/>
<path id="Vector_2" d="M41.19 66.8503C39.35 65.4945 38.2848 63.364 38.2848 61.1367V44.6735C38.2848 42.8335 36.8321 41.3809 34.9921 41.3809C33.1522 41.3809 31.6995 42.8335 31.6995 44.6735V61.0398C31.6995 63.2672 30.6343 65.3977 28.7943 66.7535C26.0827 68.6903 24.5332 71.8861 24.5332 75.1788C24.5332 80.9893 29.1816 85.6377 34.9921 85.6377C40.7058 85.6377 45.4511 80.9893 45.4511 75.1788C45.5479 71.8861 43.9016 68.7872 41.19 66.8503Z" fill="#FF3F00"/>
<path id="Vector_3" d="M48.6473 59.5874V17.5579C48.6473 13.9747 47.1947 10.5853 44.6768 7.97053C42.0621 5.35579 38.6726 4 35.0894 4C27.6326 4 21.5316 10.1011 21.5316 17.5579V59.5874C16.98 63.4611 14.3652 69.2716 14.3652 75.2758C14.3652 86.7032 23.6621 96 35.0894 96C46.5168 96 55.8137 86.7032 55.8137 75.2758C55.8137 69.1747 53.1989 63.4611 48.6473 59.5874ZM35.0894 89.5116C27.1484 89.5116 20.7568 83.12 20.7568 75.1789C20.7568 70.6274 22.9842 66.3663 26.6642 63.6547C27.5358 63.0737 28.02 62.1053 28.02 61.04V17.4611C28.02 13.5874 31.2158 10.3916 35.1863 10.3916C37.1231 10.3916 38.8663 11.1663 40.2221 12.5221C41.5779 13.8779 42.3526 15.6211 42.3526 17.5579V61.1368C42.3526 62.2021 42.8368 63.1705 43.7084 63.7516C47.3884 66.4632 49.6158 70.7242 49.6158 75.2758C49.4221 83.12 42.9337 89.5116 35.0894 89.5116Z" fill="#8E969F"/>
</g>
</g>
</svg>
