<svg xmlns="http://www.w3.org/2000/svg" width="100" height="100" viewBox="0 0 100 100" fill="none">
  <path d="M15.5998 83.4C8.1998 76 8.1998 64 15.5998 56.6C19.2998 52.9 24.0998 51 28.9998 51C33.8998 51 38.6998 52.8 42.3998 56.5C49.7998 63.9 49.7998 76 42.3998 83.4C34.9998 90.8 22.9998 90.8 15.5998 83.4ZM23.6998 60.2C23.9998 61.2 25.1998 61.8 26.1998 61.5C26.4998 61.4 26.8998 61.3 27.1998 61.2C30.0998 60.6 33.1998 61.5 35.2998 63.7C37.4998 65.8 38.2998 68.9 37.7998 71.8C37.6998 72.1 37.5998 72.5 37.4998 72.8C37.1998 73.9 37.6998 75 38.7998 75.3C38.9998 75.4 39.1998 75.4 39.3998 75.4C40.1998 75.4 40.9998 74.9 41.2998 74C42.7998 69.3 41.5998 64.3 38.0998 60.8C34.5998 57.3 29.5998 56.1 24.8998 57.6C23.9998 58 23.3998 59.1 23.6998 60.2ZM19.7998 79.2C22.2998 81.7 25.5998 83 28.9998 83C30.2998 83 31.6998 82.8 32.9998 82.4C33.9998 82.1 34.5998 80.9 34.2998 79.9C33.9998 78.9 32.7998 78.3 31.7998 78.6C31.4998 78.7 31.0998 78.8 30.7998 78.9C27.8998 79.5 24.7998 78.6 22.6998 76.4C20.4998 74.3 19.6998 71.2 20.1998 68.3C20.2998 67.9 20.3998 67.6 20.4998 67.3C20.7998 66.3 20.2998 65.1 19.1998 64.8C18.0998 64.4 16.9998 65 16.5998 66C15.0998 70.7 16.2998 75.7 19.7998 79.2ZM57.5998 56.6C61.2998 52.9 66.0998 51 70.9998 51C75.8998 51 80.6998 52.8 84.3998 56.5C91.7998 63.9 91.7998 76 84.3998 83.4C76.9998 90.8 64.8998 90.8 57.4998 83.4C50.1998 76 50.1998 64 57.5998 56.6ZM65.6998 60.2C65.9998 61.2 67.1998 61.8 68.1998 61.5C68.4998 61.4 68.8998 61.3 69.1998 61.2C72.0998 60.6 75.1998 61.5 77.2998 63.7C79.4998 65.8 80.2998 68.9 79.7998 71.8C79.6998 72.1 79.5998 72.5 79.4998 72.8C79.1998 73.9 79.6998 75 80.7998 75.3C80.9998 75.4 81.1998 75.4 81.3998 75.4C82.1998 75.4 82.9998 74.9 83.2998 74C84.7998 69.3 83.5998 64.3 80.0998 60.8C76.5998 57.3 71.5998 56.1 66.8998 57.6C65.9998 58 65.3998 59.1 65.6998 60.2ZM61.7998 79.2C64.2998 81.7 67.5998 83 70.9998 83C72.2998 83 73.6998 82.8 74.9998 82.4C75.9998 82.1 76.5998 80.9 76.2998 79.9C75.9998 78.9 74.7998 78.3 73.7998 78.6C73.4998 78.7 73.0998 78.8 72.7998 78.9C69.8998 79.5 66.7998 78.6 64.6998 76.4C62.4998 74.3 61.6998 71.2 62.1998 68.3C62.2998 67.9 62.3998 67.6 62.4998 67.3C62.7998 66.3 62.2998 65.1 61.1998 64.8C60.0998 64.4 58.9998 65 58.5998 66C57.0998 70.7 58.2998 75.7 61.7998 79.2ZM36.5998 46.4C32.9998 42.8 30.9998 38.1 30.9998 33C30.9998 27.9 32.9998 23.1 36.5998 19.6C40.1998 16 44.8998 14 49.9998 14C55.0998 14 59.7998 16 63.3998 19.6C70.7998 27 70.7998 39.1 63.3998 46.5C55.9998 53.8 43.9998 53.8 36.5998 46.4ZM44.6998 23.2C44.9998 24.2 46.1998 24.8 47.1998 24.5C47.4998 24.4 47.8998 24.3 48.1998 24.2C51.0998 23.6 54.1998 24.5 56.2998 26.7C58.4998 28.8 59.2998 31.9 58.7998 34.8C58.6998 35.1 58.5998 35.5 58.4998 35.8C58.1998 36.9 58.6998 38 59.7998 38.3C59.9998 38.4 60.1998 38.4 60.3998 38.4C61.1998 38.4 61.9998 37.9 62.2998 37C63.7998 32.3 62.5998 27.3 59.0998 23.8C55.5998 20.3 50.5998 19.1 45.8998 20.6C44.9998 21 44.3998 22.1 44.6998 23.2ZM40.7998 42.2C43.2998 44.7 46.5998 46 49.9998 46C51.2998 46 52.6998 45.8 53.9998 45.4C54.9998 45.1 55.5998 43.9 55.2998 42.9C54.9998 41.9 53.7998 41.3 52.7998 41.6C52.4998 41.7 52.0998 41.8 51.7998 41.9C48.8998 42.5 45.7998 41.6 43.6998 39.4C41.4998 37.3 40.6998 34.2 41.1998 31.3C41.2998 30.9 41.3998 30.6 41.4998 30.3C41.7998 29.3 41.2998 28.1 40.1998 27.8C39.0998 27.4 37.9998 28 37.5998 29C36.0998 33.7 37.2998 38.7 40.7998 42.2Z" fill="#8E969F"/>
  <path d="M36.6 46.4C33 42.8 31 38.1 31 33C31 27.9 33 23.1 36.6 19.6C40.2 16 44.9 14 50 14C55.1 14 59.8 16 63.4 19.6C70.8 27 70.8 39.1 63.4 46.5C56 53.8 44 53.8 36.6 46.4ZM44.7 23.2C45 24.2 46.2 24.8 47.2 24.5C47.5 24.4 47.9 24.3 48.2 24.2C51.1 23.6 54.2 24.5 56.3 26.7C58.5 28.8 59.3 31.9 58.8 34.8C58.7 35.1 58.6 35.5 58.5 35.8C58.2 36.9 58.7 38 59.8 38.3C60 38.4 60.2 38.4 60.4 38.4C61.2 38.4 62 37.9 62.3 37C63.8 32.3 62.6 27.3 59.1 23.8C55.6 20.3 50.6 19.1 45.9 20.6C45 21 44.4 22.1 44.7 23.2ZM40.8 42.2C43.3 44.7 46.6 46 50 46C51.3 46 52.7 45.8 54 45.4C55 45.1 55.6 43.9 55.3 42.9C55 41.9 53.8 41.3 52.8 41.6C52.5 41.7 52.1 41.8 51.8 41.9C48.9 42.5 45.8 41.6 43.7 39.4C41.5 37.3 40.7 34.2 41.2 31.3C41.3 30.9 41.4 30.6 41.5 30.3C41.8 29.3 41.3 28.1 40.2 27.8C39.1 27.4 38 28 37.6 29C36.1 33.7 37.3 38.7 40.8 42.2Z" fill="#FF3F00"/>
</svg>