<svg width="12" height="18" viewBox="0 0 12 18"  xmlns="http://www.w3.org/2000/svg">
  <path d="M4.07692 12.2L4.07692 5.8L5.61538 5.8L5.61538 12.2L4.07692 12.2ZM4.84615 2.52L4.84615 1C2.72308 1 0.999999 2.792 0.999999 5L1 8.2L2.46154 8.2L2.46154 5C2.46154 3.632 3.53077 2.52 4.84615 2.52ZM4.84615 15.48C3.53077 15.48 2.46154 14.368 2.46154 13L2.46154 9.8L1 9.8L1 13C1 15.208 2.72308 17 4.84615 17C6.96923 17 8.69231 15.208 8.69231 13L8.69231 9.8L7.23077 9.8L7.23077 13C7.23077 14.368 6.16154 15.48 4.84615 15.48ZM4.84615 3.4L4.84615 5L7.15385 5L7.15385 7.4L8.69231 7.4L8.69231 5L11 5L11 3.4L8.69231 3.4L8.69231 1L7.15385 1L7.15385 3.4L4.84615 3.4Z" />
</svg>
