<svg width="100" height="100" viewBox="0 0 100 100" fill="none" xmlns="http://www.w3.org/2000/svg">
<g clip-path="url(#clip0_85_2271)">
<path fill-rule="evenodd" clip-rule="evenodd" d="M7.89844 60.7168C7.89844 60.7168 19.6664 38.5493 46.4863 33.8969C46.4863 33.8969 65.096 28.6971 74.9482 48.4016C74.9482 48.4016 87.5372 53.054 90.0002 63.7272C90.0002 63.7272 59.8962 53.054 50.5914 85.0737C50.5914 85.0737 28.9712 58.5274 7.89844 60.7168Z" stroke="#8E969F" stroke-width="1.90062" stroke-linecap="round" stroke-linejoin="round"/>
<path fill-rule="evenodd" clip-rule="evenodd" d="M55.7917 82.8842C55.7917 82.8842 57.7074 72.4846 68.3806 68.3795C68.3806 68.3795 75.2224 81.7895 66.4649 87.5366C57.7074 93.2837 55.518 84.2525 55.7917 82.8842Z" fill="#FF3F00" stroke="#FF3F00" stroke-width="1.90062" stroke-linecap="round" stroke-linejoin="round"/>
<path fill-rule="evenodd" clip-rule="evenodd" d="M38.2755 32.8021C38.2755 32.8021 65.3691 20.7605 76.0423 45.1174L82.8841 47.3067C86.4419 48.4014 83.9788 41.0123 78.5054 43.4753C78.5054 43.4753 82.8841 35.2651 74.1266 32.2547C74.1266 32.2547 78.2317 15.287 62.6323 21.8552C62.6323 21.8552 57.4326 5.98217 50.3171 21.3078C50.3171 21.3078 27.6022 9.53992 38.2755 32.8021Z" stroke="#8E969F" stroke-width="1.90062" stroke-linecap="round" stroke-linejoin="round"/>
<path d="M56.8854 51.1382C59.1525 51.1382 60.9905 49.3002 60.9905 47.0331C60.9905 44.7659 59.1525 42.928 56.8854 42.928C54.6182 42.928 52.7803 44.7659 52.7803 47.0331C52.7803 49.3002 54.6182 51.1382 56.8854 51.1382Z" stroke="#8E969F" stroke-width="1.90062" stroke-linecap="round" stroke-linejoin="round"/>
<path fill-rule="evenodd" clip-rule="evenodd" d="M7.89844 60.7168C7.89844 60.7168 19.6664 38.5493 46.4863 33.8969C46.4863 33.8969 65.096 28.6971 74.9482 48.4016C74.9482 48.4016 87.5372 53.054 90.0002 63.7272C90.0002 63.7272 59.8962 53.054 50.5914 85.0737C50.5914 85.0737 28.9712 58.5274 7.89844 60.7168ZM52.7807 47.0332C52.7807 49.2226 54.4228 51.1383 56.8858 51.1383C59.0752 51.1383 60.9909 49.2226 60.9909 47.0332C60.9909 44.5701 59.0752 42.9281 56.8858 42.9281C54.4228 42.9281 52.7807 44.5701 52.7807 47.0332Z" fill="#8E969F"/>
<path fill-rule="evenodd" clip-rule="evenodd" d="M76.0423 45.1174C65.3691 20.7605 38.2755 32.8021 38.2755 32.8021C27.6022 9.53992 50.3171 21.3078 50.3171 21.3078C57.4326 5.98217 62.6323 21.8552 62.6323 21.8552C78.2317 15.287 74.1266 32.2547 74.1266 32.2547C82.8841 35.2651 78.5054 43.4753 78.5054 43.4753C83.9788 41.0123 86.4419 48.4014 82.8841 47.3067L76.0423 45.1174Z" fill="#8E969F"/>
<path d="M60.9191 81.4634C60.9144 81.4648 60.9121 81.4653 60.9121 81.4653C60.9121 81.4652 60.9145 81.4645 60.9191 81.4634Z" fill="#FF3F00" stroke="#FF3F00" stroke-width="16"/>
</g>
<defs>
<clipPath id="clip0_85_2271">
<rect width="100" height="100" fill="white"/>
</clipPath>
</defs>
</svg>
