<svg width="100" height="100" viewBox="0 0 100 100" fill="none" xmlns="http://www.w3.org/2000/svg">
<g clip-path="url(#clip0_81_870)">
<path d="M83.6002 66.8001H79.4002L55.8802 43.2801C60.0802 40.7601 62.6002 36.1401 62.6002 31.1001C62.6002 23.9601 57.1402 17.6601 50.0002 16.8201V8.00012H41.6002V24.8001H47.9002C51.2602 24.8001 54.2002 27.7401 54.2002 31.1001C54.2002 34.4601 51.2602 37.4001 47.9002 37.4001C44.5402 37.4001 41.6002 34.4601 41.6002 31.1001H33.2002C33.2002 38.2401 38.6602 44.5401 45.3802 45.3801L66.8002 66.8001H33.2002L45.8002 54.2001L39.5002 47.9001L20.6002 66.8001H16.4002C11.7802 66.8001 8.00024 70.5801 8.00024 75.2001V83.6001C8.00024 88.2201 11.7802 92.0001 16.4002 92.0001H83.6002C88.2202 92.0001 92.0002 88.2201 92.0002 83.6001V75.2001C92.0002 70.5801 88.2202 66.8001 83.6002 66.8001ZM33.2002 83.6001H16.4002V75.2001H33.2002V83.6001Z" fill="#8E969F"/>
<path d="M62.5992 31.1001C62.5992 36.1401 60.0792 40.7601 55.8792 43.2801C50.9834 45.9041 46.8393 45.7734 45.3792 45.3801C38.6592 44.5401 33.1992 38.2401 33.1992 31.1001H41.5992C41.5992 34.4601 44.5392 37.4001 47.8992 37.4001C51.2592 37.4001 54.1992 34.4601 54.1992 31.1001C54.1992 27.7401 51.2592 24.8001 47.8992 24.8001H41.5992V8.00012H49.9992V16.8201C57.1392 17.6601 62.5992 23.9601 62.5992 31.1001Z" fill="#FF3F00"/>
</g>
<defs>
<clipPath id="clip0_81_870">
<rect width="100" height="100" fill="white"/>
</clipPath>
</defs>
</svg>
