<svg xmlns="http://www.w3.org/2000/svg" width="100" height="100" viewBox="0 0 100 100" fill="none">
  <path d="M30.909 53.818H69.0902V61.4542H30.909V53.818ZM30.909 76.7267H69.0902V69.0905H30.909V76.7267ZM88.1808 15.6367H11.8184C10.8057 15.6367 9.83458 16.039 9.11855 16.755C8.40251 17.4711 8.00024 18.4422 8.00024 19.4548V80.5448C8.00024 81.5574 8.40251 82.5286 9.11855 83.2446C9.83458 83.9607 10.8057 84.3629 11.8184 84.3629H23.2727V34.7273C23.2727 33.7147 23.675 32.7436 24.391 32.0275C25.1071 31.3115 26.0782 30.9092 27.0909 30.9092H72.9083C73.921 30.9092 74.8921 31.3115 75.6082 32.0275C76.3242 32.7436 76.7265 33.7147 76.7265 34.7273V84.3629H88.1808C89.1935 84.3629 90.1646 83.9607 90.8807 83.2446C91.5967 82.5286 91.999 81.5574 91.999 80.5448V19.4548C91.999 18.4422 91.5967 17.4711 90.8807 16.755C90.1646 16.039 89.1935 15.6367 88.1808 15.6367ZM30.909 46.1817H69.0902V38.5455H30.909V46.1817Z" fill="#8E969F"/>
  <path d="M30.9102 76.7265H69.0914V69.0903H30.9102V76.7265ZM30.9102 46.1815H69.0914V38.5453H30.9102V46.1815Z" fill="#FF3F00"/>
</svg>