<svg xmlns="http://www.w3.org/2000/svg" width="100" height="100" viewBox="0 0 100 100" fill="none">
  <path d="M81.875 81.75H18.125V29.25H33.125V55.5C33.125 55.8482 33.222 56.1895 33.405 56.4857C33.5881 56.7819 33.85 57.0213 34.1615 57.1771C34.4729 57.3328 34.8216 57.3987 35.1684 57.3674C35.5152 57.3362 35.8464 57.2089 36.125 57L50 46.5938L63.875 57C64.1536 57.2089 64.4848 57.3362 64.8316 57.3674C65.1784 57.3987 65.5271 57.3328 65.8385 57.1771C66.15 57.0213 66.4119 56.7819 66.595 56.4857C66.778 56.1895 66.875 55.8482 66.875 55.5V29.25H81.875V81.75ZM36.875 29.25H63.125V51.75L51.125 42.75C50.8008 42.5064 50.4063 42.3746 50.0008 42.3746C49.5952 42.3746 49.2007 42.5064 48.8765 42.75L36.875 51.75V29.25ZM87.5 25.5H12.5V18H87.5V25.5Z" fill="#8E969F"/>
  <path d="M36.375 29.25H62.625V51.75L50.625 42.75C50.3008 42.5064 49.9063 42.3746 49.5008 42.3746C49.0952 42.3746 48.7007 42.5064 48.3765 42.75L36.375 51.75V29.25Z" fill="#FF3F00"/>
</svg>