<svg xmlns="http://www.w3.org/2000/svg" width="100" height="100" viewBox="0 0 100 100" fill="none">
  <path d="M21.6683 47.9329C12.8886 54.1304 13.9215 71.0258 22.2586 76.5592C23.439 77.3708 25.0622 77.297 26.1689 76.3378C34.7272 69.4026 30.8907 54.1304 25.8737 48.3756C24.8408 47.1951 22.9964 47.0476 21.6683 47.9329Z" fill="#8E969F"/>
  <path d="M79.7323 45.572C78.6994 44.3916 76.855 44.1702 75.5269 45.0556C66.7472 51.3268 67.7064 68.2222 76.0434 73.7556C77.2239 74.5672 78.847 74.4934 79.9537 73.5343C88.5858 66.5991 84.6755 51.3268 79.7323 45.572Z" fill="#8E969F"/>
  <path d="M60.1073 58.1145C61.6567 57.8193 62.7634 56.27 62.6158 54.7206C61.5829 44.0227 46.3844 36.571 37.4572 40.9977C36.1291 41.6617 35.4651 43.0635 35.6865 44.5391C37.531 55.3846 52.6556 59.59 60.1073 58.1145Z" fill="#8E969F"/>
  <path d="M37.2361 69.6978C36.2769 70.8045 36.2769 72.4276 37.0147 73.6081C43.0646 82.8304 58.632 80.5433 64.8294 76.1903C66.1574 75.2312 66.5263 73.4605 65.7148 72.0587C60.5502 62.6888 43.6548 61.951 37.2361 69.6978Z" fill="#8E969F"/>
  <path d="M77.0765 33.6936C74.1253 23.3645 57.8201 18.7164 49.852 24.7663C48.6715 25.6517 48.2289 27.201 48.7453 28.529C52.5081 38.9319 68.1492 40.3337 75.232 37.5301C76.7076 36.9399 77.5191 35.2429 77.0765 33.6936Z" fill="#FF3F00"/>
  <path d="M39.2278 21.0774C29.4152 16.7244 15.4709 26.3157 14.9545 36.3496C14.8807 37.8252 15.766 39.0795 17.1678 39.5959C27.5707 43.3586 38.6375 32.1442 40.9985 24.9139C41.5149 23.4383 40.7034 21.7414 39.2278 21.0774Z" fill="#8E969F"/>
</svg>