<svg xmlns="http://www.w3.org/2000/svg" width="100" height="100" viewBox="0 0 100 100" fill="none">
  <g clip-path="url(#clip0_86_2312)">
    <path fill-rule="evenodd" clip-rule="evenodd" d="M31.2058 78.738C34.7666 74.6075 37.4728 73.4681 40.179 75.747C48.2976 82.2988 49.7219 86.999 47.3005 89.2779C42.3154 93.6933 35.4787 96.8268 33.0574 90.1325C30.6361 83.5807 31.2058 78.738 31.2058 78.738Z" fill="#FF3F00"/>
    <path fill-rule="evenodd" clip-rule="evenodd" d="M20.6662 37.0058C20.6662 37.0058 26.3634 65.4921 39.7519 71.1893C52.9981 76.8866 62.5409 72.6136 62.5409 72.6136C62.5409 72.6136 65.8169 68.768 70.5171 72.6136C75.3598 76.4593 87.1816 70.1923 83.3359 62.2161C79.6327 54.0975 71.0868 49.3973 65.8169 34.5845C65.8169 34.5845 67.2412 27.4629 63.9653 23.19C63.9653 23.19 69.0928 14.6441 66.8139 10.9409C64.3926 7.09523 60.1196 16.0684 60.1196 16.0684C60.1196 16.0684 51.1464 13.7895 46.3038 15.2138C46.3038 15.2138 34.9093 -1.45064 34.482 8.51955C34.0547 18.4897 35.9063 21.3384 35.9063 21.3384C35.9063 21.3384 28.7847 16.6381 22.6602 24.187C22.6602 24.187 12.1203 22.3354 16.9629 28.0326C21.6632 33.7299 24.5118 36.0088 31.2061 30.8813C37.7579 25.6113 31.6334 37.0058 27.7877 37.4331C24.0845 38.0028 20.6662 37.0058 20.6662 37.0058Z" fill="#8E969F"/>
    <path d="M54.8496 40.2816C56.4229 40.2816 57.6982 39.0062 57.6982 37.433C57.6982 35.8597 56.4229 34.5844 54.8496 34.5844C53.2763 34.5844 52.001 35.8597 52.001 37.433C52.001 39.0062 53.2763 40.2816 54.8496 40.2816Z" fill="#F6F8FA"/>
  </g>
  <defs>
    <clipPath id="clip0_86_2312">
      <rect width="100" height="100" fill="white"/>
    </clipPath>
  </defs>
</svg>