<svg xmlns="http://www.w3.org/2000/svg" width="100" height="100" viewBox="0 0 100 100" fill="none">
  <path d="M72.908 53.8184H51.9082V80.5454H72.908V53.8184Z" fill="#FF3F00"/>
  <path d="M48.09 53.8184H27.0902V80.5454H48.09V53.8184Z" fill="#8E969F"/>
  <path d="M49.9998 19.4551C38.8647 19.4677 28.1892 23.8967 20.3155 31.7705C12.4418 39.6442 8.01275 50.3196 8.00012 61.4548V78.6364C7.99997 78.8872 8.04925 79.1355 8.14514 79.3672C8.24102 79.5989 8.38164 79.8094 8.55894 79.9867C8.73625 80.164 8.94676 80.3046 9.17845 80.4005C9.41014 80.4964 9.65845 80.5457 9.9092 80.5455H23.2727V51.9094C23.2726 51.6586 23.3219 51.4103 23.4177 51.1786C23.5136 50.9469 23.6542 50.7364 23.8316 50.5591C24.0089 50.3818 24.2194 50.2412 24.4511 50.1453C24.6827 50.0494 24.9311 50.0001 25.1818 50.0003H74.8178C75.0685 50.0001 75.3169 50.0494 75.5485 50.1453C75.7802 50.2412 75.9907 50.3818 76.168 50.5591C76.3454 50.7364 76.486 50.9469 76.5819 51.1786C76.6777 51.4103 76.727 51.6586 76.7269 51.9094V80.5455H90.0904C90.3411 80.5457 90.5895 80.4964 90.8212 80.4005C91.0528 80.3046 91.2634 80.164 91.4407 79.9867C91.618 79.8094 91.7586 79.5989 91.8545 79.3672C91.9504 79.1355 91.9996 78.8872 91.9995 78.6364V61.4548C91.9868 50.3196 87.5578 39.6442 79.6841 31.7705C71.8104 23.8967 61.1349 19.4677 49.9998 19.4551ZM40.4544 30.9095H59.5452C60.0515 30.9095 60.5371 31.1107 60.8951 31.4687C61.2531 31.8267 61.4543 32.3123 61.4543 32.8186C61.4543 33.3249 61.2531 33.8105 60.8951 34.1685C60.5371 34.5266 60.0515 34.7277 59.5452 34.7277H40.4544C39.9481 34.7277 39.4625 34.5266 39.1045 34.1685C38.7465 33.8105 38.5453 33.3249 38.5453 32.8186C38.5453 32.3123 38.7465 31.8267 39.1045 31.4687C39.4625 31.1107 39.9481 30.9095 40.4544 30.9095ZM63.3633 42.364H36.6363C36.1299 42.364 35.6444 42.1629 35.2863 41.8048C34.9283 41.4468 34.7272 40.9612 34.7272 40.4549C34.7272 39.9486 34.9283 39.463 35.2863 39.105C35.6444 38.747 36.1299 38.5458 36.6363 38.5458H63.3633C63.8697 38.5458 64.3552 38.747 64.7133 39.105C65.0713 39.463 65.2724 39.9486 65.2724 40.4549C65.2724 40.9612 65.0713 41.4468 64.7133 41.8048C64.3552 42.1629 63.8697 42.364 63.3633 42.364Z" fill="#8E969F"/>
</svg>