<svg width="147" height="25" viewBox="0 0 147 25" fill="none" xmlns="http://www.w3.org/2000/svg">
<path d="M0.4 20L4.94 5.6H8.47L13.01 20H10.53L6.41 7.08H6.95L2.88 20H0.4ZM2.93 16.88V14.63H10.49V16.88H2.93ZM14.418 20V5.6H16.828V11.66H23.648V5.6H26.048V20H23.648V13.92H16.828V20H14.418ZM28.4516 20V5.6H37.7516V7.86H30.8616V20H28.4516ZM37.5594 20L42.0994 5.6H45.6294L50.1694 20H47.6894L43.5694 7.08H44.1094L40.0394 20H37.5594ZM40.0894 16.88V14.63H47.6494V16.88H40.0894ZM51.5773 20V5.6H57.5273C57.6673 5.6 57.8473 5.60667 58.0673 5.62C58.2873 5.62667 58.4907 5.64667 58.6773 5.68C59.5107 5.80667 60.1973 6.08333 60.7373 6.51C61.284 6.93667 61.6873 7.47667 61.9473 8.13C62.214 8.77667 62.3473 9.49667 62.3473 10.29C62.3473 11.0767 62.214 11.7967 61.9473 12.45C61.6807 13.0967 61.274 13.6333 60.7273 14.06C60.1873 14.4867 59.504 14.7633 58.6773 14.89C58.4907 14.9167 58.284 14.9367 58.0573 14.95C57.8373 14.9633 57.6607 14.97 57.5273 14.97H53.9873V20H51.5773ZM53.9873 12.72H57.4273C57.5607 12.72 57.7107 12.7133 57.8773 12.7C58.044 12.6867 58.1973 12.66 58.3373 12.62C58.7373 12.52 59.0507 12.3433 59.2773 12.09C59.5107 11.8367 59.674 11.55 59.7673 11.23C59.8673 10.91 59.9173 10.5967 59.9173 10.29C59.9173 9.98333 59.8673 9.67 59.7673 9.35C59.674 9.02333 59.5107 8.73333 59.2773 8.48C59.0507 8.22667 58.7373 8.05 58.3373 7.95C58.1973 7.91 58.044 7.88667 57.8773 7.88C57.7107 7.86667 57.5607 7.86 57.4273 7.86H53.9873V12.72Z" fill="#212529"/>
<path d="M86.49 20.3C85.05 20.3 83.8167 19.9867 82.79 19.36C81.7633 18.7267 80.9733 17.8467 80.42 16.72C79.8733 15.5933 79.6 14.2867 79.6 12.8C79.6 11.3133 79.8733 10.0067 80.42 8.88C80.9733 7.75333 81.7633 6.87667 82.79 6.25C83.8167 5.61667 85.05 5.3 86.49 5.3C88.15 5.3 89.5333 5.71667 90.64 6.55C91.7467 7.37667 92.5233 8.49333 92.97 9.9L90.54 10.57C90.26 9.63 89.7833 8.89667 89.11 8.37C88.4367 7.83667 87.5633 7.57 86.49 7.57C85.5233 7.57 84.7167 7.78667 84.07 8.22C83.43 8.65333 82.9467 9.26333 82.62 10.05C82.3 10.83 82.1367 11.7467 82.13 12.8C82.13 13.8533 82.29 14.7733 82.61 15.56C82.9367 16.34 83.4233 16.9467 84.07 17.38C84.7167 17.8133 85.5233 18.03 86.49 18.03C87.5633 18.03 88.4367 17.7633 89.11 17.23C89.7833 16.6967 90.26 15.9633 90.54 15.03L92.97 15.7C92.5233 17.1067 91.7467 18.2267 90.64 19.06C89.5333 19.8867 88.15 20.3 86.49 20.3ZM98.2256 20V7.86H93.5656V5.6H105.296V7.86H100.636V20H98.2256ZM106.495 20V5.6H112.445C112.585 5.6 112.765 5.60667 112.985 5.62C113.205 5.62667 113.408 5.64667 113.595 5.68C114.428 5.80667 115.115 6.08333 115.655 6.51C116.201 6.93667 116.605 7.47667 116.865 8.13C117.131 8.77667 117.265 9.49667 117.265 10.29C117.265 11.0767 117.131 11.7967 116.865 12.45C116.598 13.0967 116.191 13.6333 115.645 14.06C115.105 14.4867 114.421 14.7633 113.595 14.89C113.408 14.9167 113.201 14.9367 112.975 14.95C112.755 14.9633 112.578 14.97 112.445 14.97H108.905V20H106.495ZM108.905 12.72H112.345C112.478 12.72 112.628 12.7133 112.795 12.7C112.961 12.6867 113.115 12.66 113.255 12.62C113.655 12.52 113.968 12.3433 114.195 12.09C114.428 11.8367 114.591 11.55 114.685 11.23C114.785 10.91 114.835 10.5967 114.835 10.29C114.835 9.98333 114.785 9.67 114.685 9.35C114.591 9.02333 114.428 8.73333 114.195 8.48C113.968 8.22667 113.655 8.05 113.255 7.95C113.115 7.91 112.961 7.88667 112.795 7.88C112.628 7.86667 112.478 7.86 112.345 7.86H108.905V12.72ZM124.958 20.3C123.518 20.3 122.285 19.9867 121.258 19.36C120.231 18.7267 119.441 17.8467 118.888 16.72C118.341 15.5933 118.068 14.2867 118.068 12.8C118.068 11.3133 118.341 10.0067 118.888 8.88C119.441 7.75333 120.231 6.87667 121.258 6.25C122.285 5.61667 123.518 5.3 124.958 5.3C126.398 5.3 127.631 5.61667 128.658 6.25C129.691 6.87667 130.481 7.75333 131.028 8.88C131.581 10.0067 131.858 11.3133 131.858 12.8C131.858 14.2867 131.581 15.5933 131.028 16.72C130.481 17.8467 129.691 18.7267 128.658 19.36C127.631 19.9867 126.398 20.3 124.958 20.3ZM124.958 18.03C125.925 18.0367 126.728 17.8233 127.368 17.39C128.015 16.9567 128.498 16.3467 128.818 15.56C129.145 14.7733 129.308 13.8533 129.308 12.8C129.308 11.7467 129.145 10.8333 128.818 10.06C128.498 9.28 128.015 8.67333 127.368 8.24C126.728 7.80667 125.925 7.58333 124.958 7.57C123.991 7.56333 123.188 7.77667 122.548 8.21C121.908 8.64333 121.425 9.25333 121.098 10.04C120.778 10.8267 120.618 11.7467 120.618 12.8C120.618 13.8533 120.778 14.77 121.098 15.55C121.418 16.3233 121.898 16.9267 122.538 17.36C123.185 17.7933 123.991 18.0167 124.958 18.03ZM133.448 20V5.6H135.888V15.75L142.568 5.6H145.008V20H142.568V9.85L135.888 20H133.448ZM139.218 4.38C138.658 4.38 138.148 4.24333 137.688 3.97C137.235 3.69667 136.872 3.33333 136.598 2.88C136.325 2.42 136.188 1.91 136.188 1.35H138.068C138.068 1.67 138.178 1.94333 138.398 2.17C138.625 2.39 138.898 2.5 139.218 2.5C139.538 2.5 139.808 2.39 140.028 2.17C140.255 1.94333 140.368 1.67 140.368 1.35H142.248C142.248 1.91 142.112 2.42 141.838 2.88C141.565 3.33333 141.198 3.69667 140.738 3.97C140.278 4.24333 139.772 4.38 139.218 4.38Z" fill="#212529"/>
<path d="M71 4V22" stroke="#FF3F00" stroke-width="2.5"/>
</svg>
